# AST/ASF file generated using VICON BodyLanguage
# -----------------------------------------------
:version 1.10
:name VICON
:units
  mass 1.0
  length 0.45
  angle deg
:documentation
   .ast/.asf automatically generated from VICON data using
   VICON BodyBuilder and BodyLanguage model FoxedUp or BRILLIANT.MOD
:root
   order TX TY TZ RX RY RZ
   axis XYZ
   position 0 0 0  
   orientation 0 0 0 
:bonedata
  begin
     id 1 
     name lhipjoint
     direction 0.64773 -0.699417 0.302095 
     length 2.48597 
     axis 0 0 0  XYZ
  end
  begin
     id 2 
     name lfemur
     direction 0.34202 -0.939693 0  
     length 6.71947  
     axis 0 0 20  XYZ
    dof rx ry rz
    limits (-160.0 20.0)
           (-70.0 70.0)
           (-60.0 70.0)
  end
  begin
     id 3 
     name ltibia
     direction 0.34202 -0.939693 0   
     length 8.08777   
     axis 0 0 20   XYZ
    dof rx
    limits (-10.0 170.0)
  end
  begin
     id 4 
     name lfoot
     direction 0.0808503 -0.222134 0.971658   
     length 2.08264   
     axis -90 7.62852e-016 20   XYZ
    dof rx rz
    limits (-45.0 90.0)
           (-70.0 20.0)
  end
  begin
     id 5 
     name ltoes
     direction 1.53502e-011 -4.22007e-011 1   
     length 1.04662   
     axis -90 7.62852e-016 20   XYZ
    dof rx
    limits (-90.0 20.0)
  end
  begin
     id 6 
     name rhipjoint
     direction -0.610924 -0.726792 0.313919   
     length 2.39233  
     axis 0 0 0  XYZ 
  end
  begin
     id 7 
     name rfemur
     direction -0.34202 -0.939693 0   
     length 6.96955   
     axis 0 0 -20   XYZ
    dof rx ry rz
    limits (-160.0 20.0)
           (-70.0 70.0)
           (-70.0 60.0)
  end
  begin
     id 8 
     name rtibia
     direction -0.34202 -0.939693 0   
     length 8.19584   
     axis 0 0 -20   XYZ
    dof rx
    limits (-10.0 170.0)
 end
 begin
     id 9 
     name rfoot
     direction -0.077777 -0.213691 0.9738   
     length 2.07539  
     axis -90 -7.62852e-016 -20   XYZ
    dof rx rz
    limits (-45.0 90.0)
           (-20.0 70.0)
  end
  begin
     id 10 
     name rtoes
     direction -1.53558e-011 -4.22006e-011 1   
     length 1.04381   
     axis -90 -7.62852e-016 -20   XYZ
    dof rx
    limits (-90.0 20.0)
  end
  begin
     id 11 
     name lowerback
     direction -0.00971646 0.996074 0.0879841   
     length 1.67643   
     axis 0 0 0   XYZ
    dof rx ry rz
    limits (-20.0 45.0)
           (-30.0 30.0)
           (-30.0 30.0)
  end
  begin
     id 12 
     name upperback
     direction 0.0127391 0.991676 0.128127   
     length 1.63741   
     axis 0 0 0   XYZ
    dof rx ry rz
    limits (-20.0 45.0)
           (-30.0 30.0)
           (-30.0 30.0)
  end
  begin
     id 13 
     name thorax
     direction 0.0167583 0.996049 0.0872067   
     length 1.65931   
     axis 0 0 0   XYZ
    dof rx ry rz
    limits (-20.0 45.0)
           (-30.0 30.0)
           (-30.0 30.0)
  end
  begin
     id 14 
     name lowerneck
     direction -0.0317829 0.998312 0.0486079   
     length 1.79021   
     axis 0 0 0   XYZ
    dof rx ry rz
    limits (-20.0 45.0)
           (-30.0 30.0)
           (-30.0 30.0)
  end
  begin
     id 15 
     name upperneck
     direction 0.0896851 0.972452 -0.215159   
     length 1.78797   
     axis 0 0 0   XYZ
    dof rx ry rz
    limits (-20.0 45.0)
           (-30.0 30.0)
           (-30.0 30.0)
  end
  begin
     id 16
     name head
     direction 0.0310949 0.996503 -0.0775582  
     length 1.81549  
     axis 0 0 0   XYZ
    dof rx ry rz
    limits (-20.0 45.0)
           (-30.0 30.0)
           (-30.0 30.0)
  end
  begin
     id 17 
     name lclavicle
     direction 0.853638 0.502051 -0.138733  
     length 3.31627  
     axis 0 0 0   XYZ
    dof ry rz
    limits (-20.0 10.0)
           (0.0 20.0)
  end
  begin
     id 18 
     name lhumerus
     direction 1 -4.48962e-011 -1.41788e-018   
     length 5.54893   
     axis 180 -30 -90   XYZ
    dof rx ry rz
    limits (-60.0 90.0)
           (-90.0 90.0)
           (-90.0 90.0)
  end
  begin
     id 19
     name lradius
     direction 1 -4.48962e-011 -4.95754e-027   
     length 3.02898   
     axis 180 -30 -90   XYZ
    dof rx
    limits (-10.0 170.0)
  end
  begin
     id 20
     name lwrist
     direction 1 -4.48952e-011 -1.03764e-026   
     length 1.51449   
     axis 9.09556e-015 90 90   XYZ
    dof ry
    limits (-180.0 0.0)
 end
  begin
     id 21 
     name lhand
     direction 1 -4.4902e-011 -2.07528e-026   
     length 0.640951   
     axis 1.3242e-014 90 90   XYZ
    dof rx rz
    limits (-90.0 90.0)
           (-45.0 45.0)
  end
  begin
     id 22 
     name lfingers
     direction 1 -4.49014e-011 -4.15056e-026   
     length 0.516751   
     axis 2.64841e-014 90 90   XYZ
    dof rx
    limits (0.0 90.0)
  end
  begin
     id 23
     name lthumb
     direction 0.707107 -6.35008e-011 0.707107   
     length 0.741954   
     axis -90 45 2.85299e-015   XYZ
    dof rx rz
    limits (-45.0 45.0)
           (-45.0 45.0)
  end
  begin
     id 24 
     name rclavicle
     direction -0.888531 0.455324 -0.0565039   
     length 3.20126  
     axis 0 0 0   XYZ 
    dof ry rz
    limits (-10.0 20.0)
           (-20.0 0.0)
  end
  begin
     id 25 
     name rhumerus
     direction -1 -4.48946e-011 -8.98298e-028  
     length 5.3519   
     axis 180 30 90   XYZ
    dof rx ry rz
    limits (-90.0 60.0)
           (-90.0 90.0)
           (-90.0 90.0)
  end
  begin
     id 26 
     name rradius
     direction -1 -4.4899e-011 -3.18779e-027   
     length 3.02531   
     axis 180 30 90   XYZ
    dof rx
    limits (-10.0 170.0)
  end
  begin
     id 27 
     name rwrist
     direction -1 -4.4897e-011 -1.03764e-026   
     length 1.51266   
     axis 9.09556e-015 -90 -90   XYZ
    dof ry
    limits (-180.0 0.0)
  end
  begin
     id 28
     name rhand
     direction -1 -4.48941e-011 -2.07528e-026   
     length 0.78389   
     axis 1.3242e-014 -90 -90   XYZ
    dof rx rz
    limits (-90.0 90.0)
           (-45.0 45.0)
  end
  begin
     id 29
     name rfingers
     direction -1 -4.49012e-011 -4.15056e-026   
     length 0.631992   
     axis 2.64841e-014 -90 -90   XYZ
    dof rx
    limits (0.0 90.0)
  end
  begin
     id 30
     name rthumb
     direction -0.707107 -6.3496e-011 0.707107   
     length 0.907418   
     axis -90 -45 -2.85299e-015   XYZ
    dof rx rz
    limits (-45.0 45.0)
           (-45.0 45.0)
  end
:hierarchy
  begin
    root lhipjoint rhipjoint lowerback
    lhipjoint lfemur
    lfemur ltibia
    ltibia lfoot
    lfoot ltoes
    rhipjoint rfemur
    rfemur rtibia
    rtibia rfoot
    rfoot rtoes
    lowerback upperback
    upperback thorax
    thorax lowerneck lclavicle rclavicle
    lowerneck upperneck
    upperneck head
    lclavicle lhumerus
    lhumerus lradius
    lradius lwrist
    lwrist lhand lthumb
    lhand lfingers
    rclavicle rhumerus
    rhumerus rradius
    rradius rwrist
    rwrist rhand rthumb
    rhand rfingers
  end

#!OML:ASF E:\Style3\Style3.ASF
:FULLY-SPECIFIED
:DEGREES
1069
root 0.825292 17.7718 0.726687 -171.68 86.9372 175.949
lowerback -11.4428 -1.27676 -0.68957
upperback -8.10124 -1.22135 0.198015
thorax -2.02734 -0.404402 0.47119
lowerneck -13.4227 -3.28918 -5.85998
upperneck 27.5719 -5.16396 8.83054
head 11.5885 -1.61792 3.61598
rclavicle 1.25141e-014 -4.41053e-016
rhumerus -31.1991 55.7621 -61.7771
rradius 112.551
rwrist -0.979367
rhand -1.03096 32.6453
rfingers 7.12502
rthumb 24.6025 4.20637
lclavicle 1.25141e-014 -4.41053e-016
lhumerus -21.7186 -56.6066 43.2168
lradius 119.705
lwrist 38.6526
lhand 18.7366 16.1947
lfingers 7.12502
lthumb 43.3564 40.3135
rfemur -9.30098 9.62343 19.3991
rtibia 15.2047
rfoot -17.0925 -22.8972
rtoes -12.2981
lfemur -2.14832 -22.8507 -15.0251
ltibia -6.36111e-015
lfoot -10.7581 25.0456
ltoes -14.4372
1070
root 0.819005 17.7718 0.72808 -172.535 86.9635 175.14
lowerback -11.4285 -1.29311 -0.764422
upperback -8.06556 -1.23976 0.202318
thorax -1.99539 -0.412128 0.515867
lowerneck -13.5089 -3.26987 -5.84719
upperneck 27.5914 -5.13315 8.80845
head 11.6098 -1.60402 3.60995
rclavicle -2.85015e-015 1.09114e-014
rhumerus -30.9221 56.4308 -62.3099
rradius 112.411
rwrist -0.90676
rhand -0.994164 32.8832
rfingers 7.12502
rthumb 24.6378 4.44905
lclavicle -2.85015e-015 1.09114e-014
lhumerus -21.7243 -57.3015 44.0687
lradius 119.611
lwrist 38.3882
lhand 18.5806 16.126
lfingers 7.12502
lthumb 43.2106 40.2971
rfemur -9.30936 9.62256 19.3565
rtibia 15.2526
rfoot -17.0919 -22.8815
rtoes -12.3171
lfemur -2.11091 -22.835 -15.0895
ltibia 9.54166e-015
lfoot -10.6987 25.0647
ltoes -14.5038
1071
root 0.812682 17.7715 0.730568 -172.464 86.9538 175.272
lowerback -11.3935 -1.30939 -0.789032
upperback -8.03344 -1.26253 0.212733
thorax -1.97927 -0.423825 0.53864
lowerneck -13.5682 -3.25756 -5.78228
upperneck 27.6354 -5.10359 8.70473
head 11.6313 -1.59495 3.5646
rclavicle -1.79372e-016 3.23646e-015
rhumerus -30.799 57.1869 -62.9368
rradius 112.527
rwrist -0.910016
rhand -0.937481 32.3735
rfingers 7.12502
rthumb 24.6921 3.94675
lclavicle -1.79372e-016 3.23646e-015
lhumerus -21.6595 -57.9497 44.7762
lradius 119.509
lwrist 37.9871
lhand 18.0853 16.0393
lfingers 7.12502
lthumb 42.7474 40.3739
rfemur -9.27822 9.65066 19.3813
rtibia 15.2773
rfoot -17.094 -22.9184
rtoes -12.284
lfemur -2.06039 -22.8482 -15.095
ltibia 1.11319e-014
lfoot -10.5865 25.0877
ltoes -14.7545
1072
root 0.806532 17.7709 0.733425 -171.32 86.9339 176.461
lowerback -11.3355 -1.34106 -0.766733
upperback -8.03507 -1.30784 0.252929
thorax -2.01119 -0.446759 0.564502
lowerneck -13.5774 -3.24105 -5.74182
upperneck 27.6464 -5.06485 8.61126
head 11.6299 -1.58498 3.52774
rclavicle 3.24365e-015 -2.21381e-015
rhumerus -30.6119 57.8559 -63.4083
rradius 112.606
rwrist -0.800114
rhand -1.06699 32.0594
rfingers 7.12502
rthumb 24.568 3.6158
lclavicle 3.24365e-015 -2.21381e-015
lhumerus -21.6472 -58.4757 45.4294
lradius 119.389
lwrist 37.549
lhand 17.8771 15.8146
lfingers 7.12502
lthumb 42.5525 40.2168
rfemur -9.23838 9.69204 19.4687
rtibia 15.2635
rfoot -17.0746 -22.9693
rtoes -12.3106
lfemur -2.04769 -22.8611 -15.0212
ltibia -1.43125e-014
lfoot -10.6301 25.1068
ltoes -14.764
1073
root 0.799582 17.7714 0.735143 -169.822 86.912 177.988
lowerback -11.2717 -1.36525 -0.711102
upperback -8.05465 -1.34481 0.289413
thorax -2.06623 -0.466229 0.568926
lowerneck -13.5794 -3.23055 -5.69933
upperneck 27.6697 -5.04286 8.54453
head 11.6342 -1.57841 3.49886
rclavicle -1.12954e-014 -4.32978e-015
rhumerus -30.383 58.401 -63.7804
rradius 112.545
rwrist -0.711268
rhand -1.2788 32.2028
rfingers 7.12502
rthumb 24.365 3.73175
lclavicle -1.12954e-014 -4.32978e-015
lhumerus -21.4807 -58.9177 45.8924
lradius 119.233
lwrist 37.1276
lhand 18.0684 15.6632
lfingers 7.12502
lthumb 42.7316 40.0033
rfemur -9.20785 9.64558 19.5707
rtibia 15.21
rfoot -17.0785 -22.8971
rtoes -12.1412
lfemur -2.06246 -22.87 -14.9186
ltibia 0
lfoot -10.6387 25.13
ltoes -14.6673
1074
root 0.793507 17.7732 0.73727 -168.776 86.9204 179.056
lowerback -11.1777 -1.38473 -0.674511
upperback -8.08884 -1.37371 0.30952
thorax -2.15309 -0.480935 0.568531
lowerneck -13.6245 -3.20877 -5.64445
upperneck 27.7393 -5.01269 8.49456
head 11.6647 -1.56253 3.47688
rclavicle 4.46353e-015 5.01776e-015
rhumerus -30.1268 58.9479 -64.1038
rradius 112.52
rwrist -0.711069
rhand -1.41701 32.2148
rfingers 7.12502
rthumb 24.2325 3.72597
lclavicle 4.46353e-015 5.01776e-015
lhumerus -21.2625 -59.3597 46.1884
lradius 119.079
lwrist 36.705
lhand 17.9951 15.7472
lfingers 7.12502
lthumb 42.663 40.1111
rfemur -9.18121 9.6859 19.6417
rtibia 15.1605
rfoot -17.0271 -22.9095
rtoes -12.0161
lfemur -2.05195 -22.8502 -14.8413
ltibia -1.43125e-014
lfoot -10.7382 25.0944
ltoes -14.301
1075
root 0.789115 17.7755 0.738295 -168.78 86.9365 179.073
lowerback -11.1134 -1.40614 -0.67391
upperback -8.11359 -1.40212 0.318279
thorax -2.21338 -0.494467 0.576072
lowerneck -13.6889 -3.20314 -5.63777
upperneck 27.81 -5.00179 8.47382
head 11.7037 -1.55668 3.4716
rclavicle 6.45274e-016 5.57529e-015
rhumerus -29.8892 59.5227 -64.3666
rradius 112.56
rwrist -0.787824
rhand -1.49385 32.0451
rfingers 7.12502
rthumb 24.1588 3.5465
lclavicle 6.45274e-016 5.57529e-015
lhumerus -20.9895 -59.7189 46.3557
lradius 118.878
lwrist 36.3305
lhand 17.8379 15.6067
lfingers 7.12502
lthumb 42.5159 40.0215
rfemur -9.15593 9.65757 19.6486
rtibia 15.1154
rfoot -16.917 -22.9173
rtoes -12.0963
lfemur -2.03498 -22.8351 -14.8406
ltibia 1.59028e-015
lfoot -10.7918 25.0667
ltoes -13.9155
1076
root 0.786279 17.7737 0.738965 -169.025 86.929 178.864
lowerback -11.1727 -1.42073 -0.688976
upperback -8.06275 -1.4225 0.320654
thorax -2.12689 -0.50576 0.583601
lowerneck -13.7311 -3.21673 -5.61854
upperneck 27.7766 -5.00945 8.41348
head 11.6978 -1.56686 3.44258
rclavicle 1.93116e-015 1.33558e-015
rhumerus -29.4033 59.9689 -64.3288
rradius 112.618
rwrist -0.956088
rhand -1.42173 31.9556
rfingers 7.12502
rthumb 24.2279 3.46621
lclavicle 1.93116e-015 1.33558e-015
lhumerus -20.4234 -59.9975 46.244
lradius 118.686
lwrist 36.0669
lhand 17.8474 15.4364
lfingers 7.12502
lthumb 42.5247 39.8482
rfemur -9.10168 9.64772 19.6481
rtibia 15.0797
rfoot -16.8382 -22.9427
rtoes -12.3921
lfemur -2.00465 -22.849 -14.873
ltibia -7.95139e-015
lfoot -10.5307 25.1128
ltoes -14.7649
1077
root 0.782521 17.7729 0.740993 -168.286 86.9102 179.63
lowerback -11.2384 -1.45231 -0.653936
upperback -8.02508 -1.46841 0.348407
thorax -2.0511 -0.530732 0.586929
lowerneck -13.7297 -3.18731 -5.62154
upperneck 27.7303 -4.96277 8.40183
head 11.6749 -1.54963 3.4436
rclavicle 1.37441e-014 5.69642e-015
rhumerus -28.7544 60.3699 -64.1684
rradius 112.619
rwrist -1.22732
rhand -1.21666 31.9648
rfingers 7.12502
rthumb 24.4245 3.50178
lclavicle 1.37441e-014 5.69642e-015
lhumerus -19.8635 -60.2469 46.0682
lradius 118.518
lwrist 35.8928
lhand 17.8013 15.4948
lfingers 7.12502
lthumb 42.4816 39.9214
rfemur -9.07448 9.66801 19.7085
rtibia 15.0773
rfoot -16.9112 -22.9435
rtoes -12.2438
lfemur -1.99633 -22.8603 -14.8198
ltibia 1.59028e-015
lfoot -10.4493 25.1178
ltoes -14.8762
1078
root 0.781244 17.7751 0.741742 -167.972 86.968 179.936
lowerback -11.3051 -1.45762 -0.629384
upperback -8.04481 -1.47456 0.374581
thorax -2.0358 -0.533154 0.598642
lowerneck -13.7021 -3.16549 -5.69269
upperneck 27.7396 -4.92333 8.43617
head 11.6722 -1.53542 3.47521
rclavicle 4.78326e-015 -3.50358e-015
rhumerus -28.2498 60.7479 -64.0229
rradius 112.618
rwrist -1.54305
rhand -1.0467 31.9985
rfingers 7.12502
rthumb 24.5874 3.55751
lclavicle 4.78326e-015 -3.50358e-015
lhumerus -19.3984 -60.5286 45.9593
lradius 118.334
lwrist 35.7506
lhand 17.8138 15.3624
lfingers 7.12502
lthumb 42.4934 39.7849
rfemur -9.11272 9.69546 19.716
rtibia 15.1004
rfoot -16.8641 -22.9091
rtoes -12.1408
lfemur -2.00354 -22.7984 -14.8009
ltibia -1.59028e-014
lfoot -10.5893 25.0833
ltoes -14.472
